<svg width="78" height="30" viewBox="0 0 78 30" fill="none" xmlns="http://www.w3.org/2000/svg">
<g clip-path="url(#clip0_1_299)">
<path d="M34.8561 0.21022L22.0137 30L9.17136 0.21022L14.3465 0.215348L22.0137 18.0021L29.681 0.21022H34.8561Z" fill="#424242"/>
<path d="M78 29.8385H72.8248L65.1427 12.0133L57.4581 29.8385H52.2854L65.1427 0.0128174L78 29.8385Z" fill="#424242"/>
<path d="M58.3269 3.25842L56.7284 0.0179457L40.8405 0L27.9782 29.8385H44.5041L47.4851 28.4105L52.2706 17.3124L50.8483 14.918L53.8914 13.5464L58.3269 3.25585V3.25842ZM43.7992 24.9573H35.2533L38.5495 17.3124V17.3714H47.0681L43.7967 24.9598L43.7992 24.9573ZM49.1754 12.4902H40.6295L43.9009 4.90173H52.4468L49.1754 12.4902Z" fill="#424242"/>
<path d="M68.568 27.2594H61.7149L65.1427 19.307L68.568 27.2594Z" fill="#424242"/>
<path d="M6.85556 21.8886H0L3.42778 29.8385L6.85556 21.8886Z" fill="#424242"/>
</g>
<defs>
<clipPath id="clip0_1_299">
<rect width="78" height="30" fill="white"/>
</clipPath>
</defs>
</svg>
